# xmcd
#
# Track frame offsets: 
#        150
#        15161
#        29684
#        45830
#        63447
#        80644
#        99648
#        118533
#        136528
#        159081
#        177255
#        194432
#        215626
#        234527
#        255738
#        276281
#        296689
#
# Disc length: 4217 seconds
#
# Revision: 0
# Processed by: cddbd v1.4PL0 Copyright (c) Steve Scherf et al.
# Submitted via: ExactAudioCopy v0.95a3
#
DISCID=e7107711
DTITLE=呂方 - 太認真精選17首
DYEAR=1900
DGENRE=
TTITLE0=太認真
TTITLE1=配你不起
TTITLE2=無話可說
TTITLE3=愛得真 愛得深
TTITLE4=歷久常新
TTITLE5=從未如此深愛過
TTITLE6=月滿抱佳人
TTITLE7=聽不到的說話
TTITLE8=流浪花
TTITLE9=求你說清楚
TTITLE10=妳令我快樂過
TTITLE11=沙沙的雨
TTITLE12=只因我太痴
TTITLE13=不捨得妳
TTITLE14=請你跟我走
TTITLE15=別再講她
TTITLE16=彎彎的月亮
EXTD=
EXTT0=
EXTT1=
EXTT2=
EXTT3=
EXTT4=
EXTT5=
EXTT6=
EXTT7=
EXTT8=
EXTT9=
EXTT10=
EXTT11=
EXTT12=
EXTT13=
EXTT14=
EXTT15=
EXTT16=
PLAYORDER=
